<svg version="1.1" id="Layer_1" xmlns="http://www.w3.org/2000/svg" x="0px" y="0px"
    viewBox="0 0 456 146.2" class="w-1/3 ml-[33.33%] mb-8 2xl:mb-10">
    <g>
        <path class="fill-logo-1"
            d="M239.5,61.9c0,9-7.3,16.4-16.4,16.4c-9,0-16.4-7.3-16.4-16.4V30.4c0.8-3.4,2.7-6.3,5.2-8.6
    c1,4.3,3.3,8.1,6.5,10.9c1.5,1.3,3.1,2.5,4.9,3.4c2.9,1.4,6.2,2.2,9.6,2.2c2.3,0,4.4-0.4,6.5-1v24.6H239.5z M206.7,5.5h14.7
    c0,0,2.9,0,4.9,2c1.3,1.3,2,3.2,2.4,5.1c-1.8-0.5-3.6-0.7-5.5-0.7c-2,0-4,0.3-5.8,0.8c-2.1,0.6-4.1,1.4-6,2.6
    c-1.7,1.1-3.3,2.3-4.6,3.8L206.7,5.5L206.7,5.5z M222.8,27.4c-3,0-5.4-2.4-5.4-5.4s2.4-5.4,5.4-5.4s5.3,2.4,5.3,5.4
    C228.2,25,225.8,27.4,222.8,27.4 M239.5,0v31.4c-2,0.9-4.2,1.4-6.5,1.4c-1.7,0-3.3-0.3-4.9-0.8c2.7-2.8,5-6.3,5.9-10.5
    c0.3-1.5,0.5-3,0.5-4.7c0-0.6,0-1.2,0-1.8c-0.5-8-4-11.8-7.3-13.5c-3.1-1.6-5.9-1.5-5.9-1.5h-20.2v61.9c0,12.1,9.8,21.9,21.9,21.9
    c12.1,0,21.9-9.8,21.9-21.9V0H239.5z"></path>
    </g>
    <polygon class="fill-logo-1"
        points="398.3,126.4 405.1,126.4 405.1,145.6 409.2,145.6 409.2,126.4 415.8,126.4 415.8,122.8 398.3,122.8 "></polygon>
    <polygon class="fill-logo-1"
        points="381.8,122.8 377.6,122.8 377.6,145.7 392.4,145.7 392.4,142.3 381.8,142.3 "></polygon>
    <g>
        <path class="fill-logo-1"
            d="M434.5,142.1h-5.1v-15.7h5.2c3.8,0,6.8,3.5,6.8,7.9C441.3,138.6,438.3,142.1,434.5,142.1 M434.7,122.8h-9.5v23
    h9.5c6.5,0,11-4.7,11-11.5C445.7,127.9,440.8,122.8,434.7,122.8"></path>
        <path class="fill-logo-1"
            d="M453.5,141.3c-1.4,0-2.5,1.1-2.5,2.5s1.1,2.5,2.5,2.5s2.5-1.1,2.5-2.5S454.9,141.3,453.5,141.3"></path>
    </g>
    <rect x="61.9" y="122.8" class="fill-logo-1" width="4.1" height="23"></rect>
    <polygon class="fill-logo-1"
        points="93.8,122.8 76.3,122.8 76.3,126.4 83.1,126.4 83.1,145.7 87.2,145.7 87.2,126.4 93.8,126.4 "></polygon>
    <polygon class="fill-logo-1"
        points="119.7,126.2 119.7,122.8 104.1,122.8 104.1,145.7 119.7,145.7 119.7,142.3 108.2,142.3 108.2,134.8
  119.7,134.8 119.7,131.4 108.2,131.4 108.2,126.2 "></polygon>
    <g>
        <path class="fill-logo-1"
            d="M140.6,142.1h-5.2v-15.7h5.2c3.8,0,6.8,3.5,6.8,7.9C147.4,138.6,144.4,142.1,140.6,142.1 M140.8,122.8h-9.5v23
    h9.5c6.5,0,11-4.7,11-11.5C151.7,127.9,146.8,122.8,140.8,122.8"></path>
        <path class="fill-logo-1"
            d="M14.7,122.8v15.5c0,2.3-2.3,4.1-5.2,4.1s-5.2-1.9-5.2-4.1v-15.5H0v15.9c0,4.2,4.3,7.6,9.5,7.6s9.5-3.4,9.5-7.6
    v-15.9H14.7z"></path>
    </g>
    <polygon class="fill-logo-1"
        points="45.5,122.8 45.5,138.7 34.7,122.8 30.6,122.8 30.6,145.7 34.7,145.7 34.7,129.5 45.5,145.7 49.7,145.7
  49.7,122.8 "></polygon>
    <path class="fill-logo-1"
        d="M181.8,134.1l2.5-6.5l2.5,6.5H181.8z M191.3,145.7h4.1l-8.9-23H182l-8.9,23h4.1l3.2-8.3h7.7L191.3,145.7z"></path>
    <g>
        <path class="fill-logo-1"
            d="M214.4,126.3c1.2,0,2.2,1.2,2.2,2.7s-1,2.7-2.2,2.7h-5v-5.5L214.4,126.3L214.4,126.3z M219.3,136.7
    c-0.8-1.6-1.8-2.3-2.5-2.6c2.5-0.7,4.3-2.9,4.3-5.5c0-3.2-2.8-5.8-6.2-5.8h-9.7v23h4.1v-10.4h2c1.4,0,2.1,0.4,2.1,0.4
    c1.8,0.8,2.8,3.2,2.8,3.2s0.3,0.5,1.3,2.9s2,4,2,4h5C221,140.7,221,140,219.3,136.7"></path>
        <path class="fill-logo-1"
            d="M243.8,126.3c1.2,0,2.2,1.2,2.2,2.7s-1,2.7-2.2,2.7h-5v-5.5L243.8,126.3L243.8,126.3z M248.7,136.7
    c-0.8-1.6-1.8-2.3-2.5-2.6c2.5-0.7,4.3-2.9,4.3-5.5c0-3.2-2.8-5.8-6.1-5.8h-9.7v23h4.1v-10.4h2c1.4,0,2.1,0.4,2.1,0.4
    c1.8,0.8,2.8,3.2,2.8,3.2s0.3,0.5,1.3,2.9s2,4,2,4h5C250.4,140.7,250.5,140,248.7,136.7"></path>
        <path class="fill-logo-1"
            d="M273,142.4c-4.3,0-7.8-3.6-7.8-8.1s3.5-8.2,7.8-8.2s7.8,3.7,7.8,8.2S277.3,142.4,273,142.4 M273,122.4
    c-6.7,0-12.1,5.3-12.1,11.9c0,6.5,5.4,11.9,12.1,11.9s12.1-5.3,12.1-11.9S279.7,122.4,273,122.4"></path>
    </g>
    <polygon class="fill-logo-1"
        points="322.7,122.7 317.2,139.2 312.1,122.7 308,122.7 302.9,139.2 297.4,122.7 293,122.7 301,145.7
  305.1,145.7 310.1,129.4 315.1,145.7 319.2,145.7 327.2,122.7 "></polygon>
    <g>
        <path class="fill-logo-1"
            d="M344.8,134.9c0,0-1.9-0.7-3.9-1.3c0,0-4.1-1.2-4.1-5.4c0-4.2,5.4-6,8-5.8c0,0,3.6,0,6.1,1.2v4
    c0,0-2.5-1.5-5.9-1.5c-3.5,0-3.7,2.1-3.7,2.1s-0.3,1.3,1.7,2c0,0,2.9,1,5.5,2c2.7,1.1,4.6,2.9,4.6,6.5c0,0,0.2,3.8-3.2,5.8
    c-3.4,2-6.5,1.8-6.5,1.8s-4.6,0-7.4-1.8v-4.2c0,0,3.5,2.1,7.4,2.1s5.5-1.8,5.5-3.7C348.9,138.6,349.2,136.3,344.8,134.9"></path>
    </g>
</svg>